<svg width="101" height="124" viewBox="0 0 101 124" fill="none" xmlns="http://www.w3.org/2000/svg">
<g style="mix-blend-mode:luminosity">
<g style="mix-blend-mode:luminosity">
<path d="M67.8994 0.503275C62.6069 0.603107 57.4877 2.45895 52.9613 5.11466C47.6224 8.24498 42.7765 12.3159 38.0038 16.2207C36.8106 17.1953 35.6375 18.1964 34.4507 19.1772C34.1377 19.4443 33.8244 19.698 33.5109 19.9582C33.0844 20.3051 32.851 20.7388 32.9443 21.2396C33.0643 21.8468 33.4108 22.3476 34.1109 22.4278C34.7778 22.5079 35.4442 22.5677 36.1107 22.6344C36.1242 22.6413 36.1373 22.6413 36.1576 22.6413C37.764 22.8014 39.357 22.8282 40.957 22.5476C41.1232 22.521 41.2833 22.5079 41.4297 22.5145C42.3164 22.5411 42.7495 23.1683 42.3829 24.163C42.1696 24.7365 42.0096 25.3375 41.7696 25.898C40.6831 28.4078 39.6367 30.937 38.4705 33.4131C36.7836 37.0041 35.1374 40.5075 32.5577 43.5447C32.538 43.5647 32.5176 43.5913 32.4846 43.6247C32.4379 43.6779 32.3914 43.738 32.3378 43.7917C24.4522 52.9352 13.2805 58.6881 5.98167 68.3592C2.94887 72.3836 0.0823953 76.8083 0.00271408 82.001C-0.017717 83.4826 0.0758559 84.9841 0.329201 86.4395C0.842022 89.4625 1.86194 92.3257 3.34852 95.0224C4.8882 97.8119 6.72823 100.368 8.8547 102.731C9.46762 103.411 10.0074 104.146 10.3077 105.027C10.6408 105.988 10.8341 106.929 10.0875 107.823C9.80064 108.163 9.59471 108.57 9.36752 108.958C8.86777 109.832 8.97442 110.9 9.72751 111.567C10.4545 112.201 11.2141 112.822 12.0407 113.316C19.6995 117.888 28.7514 120.938 37.3373 123.227C39.0298 123.681 40.5633 122.373 40.5164 120.564C40.4497 118.001 38.3503 116.219 36.2504 115.098C33.8244 113.809 31.1311 113.202 28.5184 112.415C27.8053 112.201 27.0719 112.075 26.3453 111.908C26.3453 111.895 26.3384 111.887 26.3384 111.874C26.3253 111.828 26.3187 111.774 26.3054 111.728C26.5786 111.554 26.8585 111.387 27.1319 111.214C31.8179 108.176 36.7771 105.394 41.2162 102.003C41.5098 101.783 41.7034 101.723 42.043 101.803C44.7557 102.457 47.4692 103.104 50.1886 103.745L50.2355 103.752L51.1552 103.905C51.7024 105.701 52.2504 107.496 52.7988 109.291C53.2131 110.648 53.6457 112.005 54.0737 113.353C54.8856 115.909 55.4115 118.589 57.0909 120.761C57.5346 121.335 58.0709 121.872 58.7524 122.119C59.6841 122.456 60.6762 122.195 61.6201 122.065C62.5669 121.934 63.5234 121.877 64.473 121.745C65.7798 121.565 66.7728 120.864 67.4132 119.69C68.0196 118.589 68.0061 117.414 67.8728 116.212C67.7462 115.025 67.1729 114.057 66.3327 113.249C65.2597 112.208 63.9602 111.527 62.5268 111.12C62.2398 111.033 62.1398 110.913 62.1334 110.626C62.1267 109.832 62.0866 109.038 62.0667 108.244C62.0667 104.413 61.9338 100.555 61.7337 96.7309C61.3137 88.6549 62.2538 86.6597 62.3935 86.5859C62.4402 91.1445 62.8067 95.3092 63.0265 97.1777C63.4465 100.789 64.1134 104.439 64.8866 107.936C65.2066 109.391 65.5931 110.846 66.6526 111.981C67.186 112.562 67.7331 113.116 68.6528 113.049C69.8325 112.962 71.0122 112.975 72.1919 112.922C72.5453 112.909 72.912 112.856 73.2518 112.755C75.7649 112.054 76.205 108.704 75.1115 106.909C74.2249 105.454 72.8318 104.667 71.219 104.052C71.2655 103.525 71.3191 103.011 71.3523 102.491C71.6922 96.337 71.9185 90.2768 73.1252 84.21C74.2984 78.2837 76.0582 72.417 78.0111 66.7641C79.4044 62.7258 81.1441 58.1141 80.2974 53.796C79.7576 51.0532 78.1579 48.3634 76.8115 45.947C75.365 43.331 73.6586 40.5811 73.7852 37.471C73.8519 35.6957 74.5382 34.0006 75.3517 32.412C76.0914 30.957 76.931 29.2484 78.0445 28.0338C78.3512 27.7003 78.7112 27.4265 79.1047 27.186C79.8911 26.7056 80.7976 26.372 81.6241 26.045C84.6369 24.8571 87.2967 22.9351 89.9293 21.0526C92.236 19.4112 94.5759 17.7624 96.5022 15.6868C98.5285 13.5045 100.022 10.8078 100.335 7.80477C100.468 6.4632 100.314 5.24191 99.5614 4.12046C98.6818 2.79895 97.0619 3.1594 95.6956 3.25965C93.8625 3.38646 92.0358 3.56649 90.2163 3.80665C88.0967 4.07382 85.7971 4.70799 83.6576 4.26693C78.3406 3.18026 73.7418 0.500406 68.2193 0.5C68.113 0.5 68.0068 0.501231 67.8994 0.503275ZM46.0692 95.1153L44.5494 95.0756L46.1892 93.5539C46.4292 93.3269 46.669 93.1067 46.9159 92.8866C47.3224 92.5062 47.6354 92.4727 47.8757 92.793C47.8757 92.7995 47.8821 92.8065 47.8821 92.813C47.9487 92.8997 48.0023 93.0132 48.0555 93.1469C48.2222 93.6007 48.3953 94.0474 48.5691 94.5351C48.5886 94.5952 48.6152 94.655 48.6358 94.7151C48.8085 95.1758 48.9021 95.436 48.9021 95.436C47.8757 95.3287 46.9624 95.2625 46.0692 95.1153Z" fill="#0D0D0D"/>
</g>
<g style="mix-blend-mode:luminosity">
<path d="M8.59198 109.131C8.70762 109.246 8.75992 109.309 8.75992 109.309L8.66553 108.889C8.62344 108.973 8.60219 109.057 8.59198 109.131Z" fill="#0D0D0D"/>
</g>
<g style="mix-blend-mode:luminosity">
<path d="M66.5594 52.1209C72.5054 62.6792 62.3935 86.5858 62.3935 86.5858C62.4402 91.1445 62.8067 95.309 63.0265 97.1776C63.4465 100.789 64.1134 104.439 64.8866 107.936C65.2065 109.391 65.5931 110.846 66.6526 111.981C67.186 112.562 67.7331 113.116 68.6528 113.049C69.8325 112.962 71.0122 112.975 72.1919 112.922C72.5453 112.908 72.9119 112.855 73.2518 112.755C75.7648 112.054 76.205 108.704 75.1115 106.909C74.2249 105.454 72.8318 104.666 71.219 104.052C71.2655 103.525 71.3191 103.011 71.3523 102.491C71.6922 96.3368 71.9185 90.2768 73.1252 84.21C74.2984 78.2837 76.0582 72.417 78.0111 66.7639C79.4044 62.7257 81.1441 58.1139 80.2974 53.796C79.7576 51.053 78.1579 48.3634 76.8115 45.9469C75.365 43.331 73.6585 40.5811 73.7852 37.471C73.8518 35.6957 74.5382 34.0006 75.3517 32.4119C76.0914 30.957 76.931 29.2484 78.0445 28.0337C78.3512 27.7003 78.7112 27.4265 79.1046 27.186C78.9596 27.1295 78.7896 27.1017 78.5954 27.1017C74.4275 27.1033 59.6803 39.9078 66.5594 52.1209Z" fill="#0D0D0D"/>
</g>
<g style="mix-blend-mode:luminosity">
<path d="M27.2518 83.6961C28.305 88.9486 35.2574 95.5092 32.4979 102.077C30.2647 107.416 25.8653 111.881 25.8653 111.901L25.8252 111.921L26.3384 111.874C26.3254 111.828 26.3187 111.774 26.3052 111.727C26.5787 111.554 26.8585 111.387 27.132 111.213C31.818 108.176 36.7772 105.394 41.2163 102.003C41.5096 101.783 41.7034 101.723 42.043 101.803C44.7558 102.457 47.469 103.104 50.1884 103.745L50.2355 103.752L51.1553 103.905L48.9022 95.436C47.8757 95.3287 46.9624 95.2624 46.0692 95.1152L44.5494 95.0756L46.1892 93.5539C46.4292 93.3268 46.669 93.1067 46.9159 92.8866C47.3224 92.5061 47.6355 92.4727 47.8757 92.793C45.916 87.9943 41.4432 78.203 37.0103 76.6283C35.8986 76.2319 34.8225 76.0497 33.8147 76.0497C29.4741 76.0501 26.4026 79.4338 27.2518 83.6961Z" fill="#0D0D0D"/>
</g>
<g style="mix-blend-mode:luminosity">
<path d="M33.5109 19.9582C33.088 20.3101 32.8511 20.7388 32.9443 21.2396C33.0643 21.8468 33.4108 22.3476 34.1109 22.4277C34.7776 22.508 35.444 22.5677 36.1105 22.6344C36.124 22.6413 36.1371 22.6413 36.1576 22.6413C37.7638 22.8014 39.3571 22.8282 40.9568 22.5476C41.1231 22.521 41.2834 22.508 41.4297 22.5145C42.3162 22.5411 42.7496 23.1683 42.3829 24.163C42.1697 24.7365 42.0094 25.3375 41.7696 25.898C40.6831 28.4077 39.6365 30.937 38.4703 33.4131C36.7836 37.0041 35.1372 40.5075 32.5577 43.5447C32.538 43.5646 32.5176 43.5912 32.4979 43.6112L32.4844 43.6247C32.4379 43.6779 32.3914 43.7382 32.3378 43.7917L32.3442 43.8114C38.1634 37.7581 53.5481 21.6397 50.0883 17.9829C49.316 17.165 47.7723 16.8459 45.9195 16.8459C41.3611 16.8459 34.9312 18.7766 33.5109 19.9582Z" fill="#0D0D0D"/>
</g>
</g>
</svg>
